<?xml version="1.0" encoding="UTF-8"?><svg xmlns="http://www.w3.org/2000/svg" viewBox="0 0 101.14 102.71"><defs><style>.d{fill:#1d1705;}</style></defs><g id="a"/><g id="b"><g id="c"><path class="d" d="M101.14,51.36c0,5.15-26.06,5.22-27.86,9.7-1.88,4.68,16.76,22.79,13.33,26.33-3.46,3.56-22.04-14.56-26.64-12.59s-4.25,27.92-9.4,27.92-4.93-26.01-9.4-27.92-23.18,16.16-26.64,12.59c-3.43-3.54,15.21-21.65,13.33-26.33-1.8-4.49-27.86-4.55-27.86-9.7s26.06-5.22,27.86-9.7c1.88-4.68-16.76-22.79-13.33-26.33s22.04,14.56,26.64,12.59c4.46-1.91,4.25-27.92,9.4-27.92s4.93,26.01,9.4,27.92,23.18-16.16,26.64-12.59c3.43,3.54-15.21,21.65-13.33,26.33,1.8,4.49,27.86,4.55,27.86,9.7Z"/></g></g></svg>