<?xml version="1.0" encoding="UTF-8"?><svg xmlns="http://www.w3.org/2000/svg" viewBox="0 0 1187.59 135.75"><g id="a"/><g id="b"><g id="c"><path d="M747.94,66.93l-11.31-5.45c-2.64-1.27-3.53-4.59-1.88-7.01l7.07-10.38c1.04-1.52,1.11-3.5,.19-5.09h0c-.92-1.59-2.67-2.52-4.5-2.38l-12.52,.93c-2.92,.22-5.35-2.21-5.13-5.13l.93-12.52c.14-1.83-.79-3.59-2.38-4.5h0c-1.59-.92-3.57-.85-5.09,.19l-10.38,7.07c-2.42,1.65-5.74,.76-7.01-1.88l-5.45-11.31c-.8-1.66-2.48-2.71-4.32-2.71h0c-1.84,0-3.52,1.05-4.32,2.71l-5.45,11.31c-1.27,2.64-4.59,3.53-7.01,1.88l-10.38-7.07c-1.52-1.04-3.5-1.11-5.09-.19h0c-1.59,.92-2.52,2.67-2.38,4.51l.93,12.52c.22,2.92-2.21,5.35-5.13,5.13l-12.52-.93c-1.83-.14-3.59,.79-4.5,2.38h0c-.92,1.59-.85,3.57,.19,5.09l7.07,10.38c1.65,2.42,.76,5.74-1.88,7.01l-11.31,5.45c-1.66,.8-2.71,2.48-2.71,4.32h0c0,1.84,1.05,3.52,2.71,4.32l11.31,5.45c2.64,1.27,3.53,4.59,1.88,7.01l-7.07,10.38c-1.04,1.52-1.11,3.5-.19,5.09h0c.92,1.59,2.67,2.52,4.5,2.38l12.52-.93c2.92-.22,5.35,2.21,5.13,5.13l-.93,12.52c-.14,1.83,.79,3.59,2.38,4.5h0c1.59,.92,3.57,.85,5.09-.19l10.38-7.07c2.42-1.65,5.74-.76,7.01,1.88l5.45,11.31c.8,1.66,2.48,2.71,4.32,2.71h0c1.84,0,3.52-1.05,4.32-2.71l5.45-11.31c1.27-2.64,4.59-3.53,7.01-1.88l10.38,7.07c1.52,1.04,3.5,1.11,5.09,.19h0c1.59-.92,2.52-2.67,2.38-4.51l-.93-12.52c-.22-2.92,2.21-5.35,5.13-5.13l12.52,.93c1.83,.14,3.59-.79,4.5-2.38h0c.92-1.59,.85-3.57-.19-5.09l-7.07-10.38c-1.65-2.42-.76-5.74,1.88-7.01l11.31-5.45c1.66-.8,2.71-2.48,2.71-4.32h0c0-1.84-1.05-3.52-2.71-4.32Zm-76.11,37.02l-6.84-3.95c-3.15-1.82-5.77-4.44-7.59-7.59l-3.95-6.84c-1.82-3.15-2.78-6.73-2.78-10.37v-7.9c0-3.64,.96-7.22,2.78-10.37l3.95-6.84c1.82-3.15,4.44-5.77,7.59-7.59l6.84-3.95c3.15-1.82,6.73-2.78,10.37-2.78h7.9c3.64,0,7.22,.96,10.37,2.78l6.84,3.95c3.15,1.82,5.77,4.44,7.59,7.59l3.95,6.84c1.82,3.15,2.78,6.73,2.78,10.37v7.9c0,3.64-.96,7.22-2.78,10.37l-3.95,6.84c-1.82,3.15-4.44,5.77-7.59,7.59l-6.84,3.95c-3.15,1.82-6.73,2.78-10.37,2.78h-7.9c-3.64,0-7.22-.96-10.37-2.78Z"/><path d="M773.36,16.29h66.4v16.59h-50.67c-1.78,0-3.23,1.45-3.23,3.23v26.17c0,1.78,1.45,3.23,3.23,3.23h47.32v16.46h-50.55v49.08h-19.51V23.3c0-3.87,3.14-7.01,7.01-7.01Z"/><path d="M886.98,16.29h45.17v16.59h-42.05c-6.54,0-11.84,5.3-11.84,11.84v20.78h50.55v16.46h-50.55v49.08h-19.51V44.53c0-15.6,12.64-28.24,28.24-28.24Z"/><path d="M1091.62,96.43c.95,0,1.67,.88,1.46,1.8-4.35,18.77-18.06,34.43-45.24,34.43-35.22,0-49.87-25.93-49.87-59.02s16.48-58.96,50.77-58.96c28.13,0,41.35,16.58,44.11,34.69,.14,.89-.58,1.69-1.48,1.69h-16.89c-.67,0-1.25-.45-1.43-1.1-2.93-10.41-9.06-19.18-25-19.18-21.42,0-29.53,20.47-29.53,42.54s7.23,43.29,29.93,43.29c15.8,0,21.88-9.72,24.89-19.15,.2-.62,.76-1.04,1.41-1.04h16.86Z"/><path d="M1180.98,79.43h-33.7c-9.69,0-17.54,7.85-17.54,17.54h0c0,9.69,7.85,17.54,17.54,17.54h38.82c.91,0,1.6,.81,1.47,1.71l-2.02,13.55c-.11,.73-.73,1.27-1.47,1.27h-72.26c-.82,0-1.49-.67-1.49-1.49V17.77c0-.82,.67-1.49,1.49-1.49h71.52c.82,0,1.49,.67,1.49,1.49v13.62c0,.82-.67,1.49-1.49,1.49h-38.64c-8.27,0-14.97,6.7-14.97,14.97h0c0,8.27,6.7,14.97,14.97,14.97h36.27c.82,0,1.49,.67,1.49,1.49v13.65c0,.82-.67,1.49-1.49,1.49Z"/><g><path d="M123.4,34.89l-30.87-2.02c-.78-.05-1.39-.7-1.39-1.48v-13.75c0-.82,.67-1.49,1.49-1.49h84.34c.82,0,1.49,.67,1.49,1.49v13.75c0,.78-.61,1.43-1.39,1.48l-30.88,2.02c-.78,.05-1.39,.7-1.39,1.48v34.39c0,9.55,.52,19.1,1.55,28.6l3.25,29.9c.1,.88-.59,1.65-1.48,1.65h-26.64c-.88,0-1.57-.77-1.48-1.65l3.25-29.9c1.03-9.5,1.55-19.04,1.55-28.6V36.38c0-.78-.61-1.43-1.39-1.48Z"/><path d="M215.06,16.15c.82,0,1.49,.67,1.49,1.49V87.43c0,18.85,8.12,29.03,24.76,29.03s24.29-10.21,24.29-29.06V17.64c0-.82,.67-1.49,1.49-1.49h17.1c.82,0,1.49,.67,1.49,1.49V87.31c0,29.83-14.87,45.22-44.76,45.22s-44.36-14.56-44.36-44.65V17.64c0-.82,.67-1.49,1.49-1.49h17.02Z"/><path d="M567.01,72.96c0,32.51-16.82,59.62-52.57,59.62s-51.13-26.28-51.13-59.47c0-30.69,17.38-58.55,52.62-58.55,33.22,0,51.08,25.42,51.08,58.41Zm-83.08-.1c0,24.17,10.38,43.46,31.37,43.46,22.55,0,31.22-19.15,31.22-43.21s-9.2-42.29-31.43-42.29-31.16,18.63-31.16,42.05Z"/><path d="M47.54,62.2c-18.01-4.87-23.75-8.28-23.75-17.67,0-2.04,.32-3.88,.92-5.52,15.35,14.52,29.72,19.74,40.49,19.74,18.49,0,17.35-16.05,15.33-21.11-4.29-12.93-15.97-23.05-38.41-23.05-5.89,0-11.24,.78-15.95,2.25C22.94,13.07,17.63,4.81,14.21,0L.89,9.48c3,4.22,7.99,12.15,10.99,15.76-5.33,5.41-8.28,12.67-8.28,21.3,0,16.23,8.86,25.72,35.91,32.93,19.33,5.23,25.26,10.13,25.26,21.09,0,9.88-6.43,16.29-20.57,16.29s-22.04-6.62-24.32-19.04H0c1.94,20.95,16.75,34.55,43.06,34.55,28.45,0,42.08-14.82,42.08-34.1,0-15.92-7.05-27.75-37.61-36.05Zm17.89-17.24c-4.98-1.17-16.54-6.36-26.31-14.9,.83-.06,1.69-.11,2.59-.11,16.54,0,22.83,7.5,23.73,15.01Z"/><path d="M449.15,16.15c0,9.59-5.37,9.59-5.37,19.17,0,9.58,5.37,9.58,5.37,19.16,0,9.58-5.37,9.58-5.37,19.17,0,9.58,5.37,9.58,5.37,19.16,0,9.58-5.37,9.58-5.37,19.16,0,8.54,4.26,9.48,5.18,16.37h-26.4c.92-6.89,5.18-7.83,5.18-16.37,0-9.58-5.37-9.58-5.37-19.16,0-9.58,5.37-9.58,5.37-19.16,0-9.58-5.37-9.58-5.37-19.17,0-9.58,5.37-9.58,5.37-19.16s-5.37-9.59-5.37-19.17h26.77Z"/><path d="M350.2,16.15h-39.76v28.25c0,5.26,1.96,9.43,4.18,13.74,2.91,5.33,6.27,9.96,9.95,14.44-.91,1.12-1.82,2.25-2.73,3.38-4.93,6.79-10.91,14.33-11.35,23.3h-.05v31.65h38.61c34.32,0,54.72-23.54,54.72-59.45s-21.04-55.31-53.58-55.31Zm-1.83,98.68h-20.32v-14c0-4.66,4.54-10.41,7.46-14.61,.19-.26,.4-.54,.61-.81,3.15,3.2,6.49,6.23,10.44,9,17.32,10.19,36.35-11.56,30.76-28.82-3.74-14-18.62-22.6-31.84-14.68-3.5,2.76-6.69,5.71-9.69,8.8-.4-.55-.83-1.1-1.22-1.65-2.78-4.21-6.51-9.42-6.51-16.99l.05-8.71h20.39c23.23,0,34.64,16.7,34.64,39.41,0,26.17-11.38,43.06-34.78,43.06Zm-1.63-42.19c3.03-3.31,5.92-6.19,7.99-7.8,2.29-1.08,6.12,.5,7.36,2.58,2.14,3.63,2.04,6.6-.47,10.2-1.49,1.86-4.81,3.18-6.15,2.93-.11,.07-.29-.18-.48-.19-2.54-1.93-5.39-4.81-7.92-7.38-.11-.11-.21-.23-.32-.34Z"/></g><polygon points="982.36 16.29 952.42 16.29 960.66 60.11 952.42 131.04 982.36 131.04 974.12 60.11 982.36 16.29"/></g></g></svg>