<?xml version="1.0" encoding="UTF-8"?><svg xmlns="http://www.w3.org/2000/svg" viewBox="0 0 102.56 102.56"><defs><style>.d{fill:#1d1705;}</style></defs><g id="a"/><g id="b"><g id="c"><path class="d" d="M102.56,51.28c0-5.67-10.71-10.27-23.92-10.27-.93,0-1.84,.02-2.74,.07,.67-.6,1.33-1.23,1.99-1.88,9.34-9.34,13.67-20.17,9.66-24.18-4.01-4.01-14.83,.31-24.18,9.66-.66,.66-1.28,1.32-1.88,1.99,.04-.9,.07-1.81,.07-2.74,0-13.21-4.6-23.92-10.27-23.92s-10.27,10.71-10.27,23.92c0,.93,.03,1.84,.07,2.74-.6-.67-1.23-1.33-1.88-1.99C29.85,15.33,19.03,11.01,15.02,15.02c-4.01,4.01,.31,14.83,9.66,24.18,.66,.66,1.32,1.28,1.99,1.88-.9-.04-1.81-.07-2.74-.07-13.21,0-23.92,4.6-23.92,10.27s10.71,10.27,23.92,10.27c.93,0,1.84-.02,2.74-.07-.67,.6-1.33,1.23-1.99,1.88-9.34,9.34-13.67,20.17-9.66,24.18,4.01,4.01,14.83-.31,24.18-9.66,.66-.66,1.28-1.32,1.88-1.99-.04,.9-.07,1.81-.07,2.74,0,13.21,4.6,23.92,10.27,23.92s10.27-10.71,10.27-23.92c0-.93-.03-1.84-.07-2.74,.6,.67,1.23,1.33,1.88,1.99,9.34,9.34,20.17,13.67,24.18,9.66s-.31-14.83-9.66-24.18c-.66-.66-1.32-1.28-1.99-1.88,.9,.04,1.81,.07,2.74,.07,13.21,0,23.92-4.6,23.92-10.27Z"/></g></g></svg>