<?xml version="1.0" encoding="UTF-8"?><svg xmlns="http://www.w3.org/2000/svg" viewBox="0 0 108.37 109.93"><defs><style>.d{fill:#1d1705;}</style></defs><g id="a"/><g id="b"><g id="c"><g><g><path class="d" d="M54.18,24.32c-1.93,0-3.5-1.57-3.5-3.5V3.5c0-1.93,1.57-3.5,3.5-3.5s3.5,1.57,3.5,3.5V20.82c0,1.93-1.57,3.5-3.5,3.5Z"/><path class="d" d="M54.18,109.93c-1.93,0-3.5-1.57-3.5-3.5v-17.32c0-1.93,1.57-3.5,3.5-3.5s3.5,1.57,3.5,3.5v17.32c0,1.93-1.57,3.5-3.5,3.5Z"/></g><g><path class="d" d="M42.51,26.38c-1.43,0-2.77-.88-3.29-2.3l-5.92-16.28c-.66-1.82,.28-3.83,2.09-4.49,1.82-.66,3.83,.28,4.49,2.09l5.92,16.28c.66,1.82-.28,3.83-2.09,4.49-.4,.14-.8,.21-1.2,.21Z"/><path class="d" d="M71.79,106.83c-1.43,0-2.77-.88-3.29-2.3l-5.92-16.28c-.66-1.82,.28-3.83,2.09-4.49,1.82-.66,3.82,.28,4.49,2.09l5.92,16.28c.66,1.82-.28,3.83-2.09,4.49-.4,.14-.8,.21-1.2,.21Z"/></g><g><path class="d" d="M32.24,32.31c-1,0-1.99-.42-2.68-1.25l-11.13-13.27c-1.24-1.48-1.05-3.69,.43-4.93,1.48-1.24,3.69-1.05,4.93,.43l11.13,13.27c1.24,1.48,1.05,3.69-.43,4.93-.66,.55-1.45,.82-2.25,.82Z"/><path class="d" d="M87.27,97.89c-1,0-1.99-.42-2.68-1.25l-11.13-13.27c-1.24-1.48-1.05-3.69,.43-4.93,1.48-1.24,3.69-1.05,4.93,.43l11.13,13.27c1.24,1.48,1.05,3.69-.43,4.93-.66,.55-1.45,.82-2.25,.82Z"/></g><g><path class="d" d="M24.61,41.39c-.59,0-1.2-.15-1.75-.47l-15-8.66c-1.67-.97-2.25-3.11-1.28-4.78,.97-1.67,3.11-2.25,4.78-1.28l15,8.66c1.67,.97,2.25,3.11,1.28,4.78-.65,1.12-1.83,1.75-3.03,1.75Z"/><path class="d" d="M98.75,84.2c-.59,0-1.2-.15-1.75-.47l-15-8.66c-1.67-.97-2.25-3.11-1.28-4.78,.97-1.67,3.11-2.25,4.78-1.28l15,8.66c1.67,.97,2.25,3.11,1.28,4.78-.65,1.12-1.83,1.75-3.03,1.75Z"/></g><g><path class="d" d="M20.56,52.54c-.2,0-.41-.02-.61-.05l-17.06-3.01c-1.9-.34-3.17-2.15-2.84-4.05,.34-1.9,2.15-3.18,4.05-2.84l17.06,3.01c1.9,.34,3.17,2.15,2.84,4.05-.3,1.7-1.78,2.89-3.44,2.89Z"/><path class="d" d="M104.87,67.4c-.2,0-.41-.02-.61-.05l-17.06-3.01c-1.9-.34-3.17-2.15-2.84-4.05,.34-1.9,2.15-3.17,4.05-2.84l17.06,3.01c1.9,.34,3.17,2.15,2.84,4.05-.3,1.7-1.78,2.89-3.44,2.89Z"/></g><g><path class="d" d="M3.5,67.4c-1.67,0-3.14-1.2-3.44-2.89-.33-1.9,.94-3.72,2.84-4.05l17.06-3.01c1.9-.33,3.72,.94,4.05,2.84,.33,1.9-.94,3.72-2.84,4.05l-17.06,3.01c-.21,.04-.41,.05-.61,.05Z"/><path class="d" d="M87.8,52.54c-1.67,0-3.14-1.2-3.44-2.89-.33-1.9,.94-3.72,2.84-4.05l17.06-3.01c1.9-.34,3.72,.94,4.05,2.84,.33,1.9-.94,3.72-2.84,4.05l-17.06,3.01c-.21,.04-.41,.05-.61,.05Z"/></g><g><path class="d" d="M9.62,84.2c-1.21,0-2.39-.63-3.03-1.75-.97-1.67-.39-3.81,1.28-4.78l15-8.66c1.67-.97,3.81-.39,4.78,1.28,.97,1.67,.39,3.81-1.28,4.78l-15,8.66c-.55,.32-1.15,.47-1.75,.47Z"/><path class="d" d="M83.76,41.39c-1.21,0-2.39-.63-3.03-1.75-.97-1.67-.39-3.81,1.28-4.78l15-8.66c1.67-.97,3.81-.39,4.78,1.28,.97,1.67,.39,3.81-1.28,4.78l-15,8.66c-.55,.32-1.15,.47-1.75,.47Z"/></g><g><path class="d" d="M21.1,97.89c-.79,0-1.59-.27-2.25-.82-1.48-1.24-1.67-3.45-.43-4.93l11.13-13.27c1.24-1.48,3.45-1.67,4.93-.43,1.48,1.24,1.67,3.45,.43,4.93l-11.13,13.27c-.69,.83-1.68,1.25-2.68,1.25Z"/><path class="d" d="M76.13,32.31c-.79,0-1.59-.27-2.25-.82-1.48-1.24-1.67-3.45-.43-4.93l11.13-13.27c1.24-1.48,3.45-1.67,4.93-.43,1.48,1.24,1.67,3.45,.43,4.93l-11.13,13.27c-.69,.83-1.68,1.25-2.68,1.25Z"/></g><g><path class="d" d="M36.58,106.83c-.4,0-.8-.07-1.2-.21-1.82-.66-2.75-2.67-2.09-4.49l5.92-16.28c.66-1.82,2.67-2.75,4.49-2.09,1.82,.66,2.75,2.67,2.09,4.49l-5.92,16.28c-.52,1.42-1.86,2.3-3.29,2.3Z"/><path class="d" d="M65.86,26.38c-.4,0-.8-.07-1.2-.21-1.82-.66-2.75-2.67-2.09-4.49l5.92-16.28c.66-1.82,2.67-2.75,4.49-2.09,1.82,.66,2.75,2.67,2.09,4.49l-5.92,16.28c-.52,1.42-1.86,2.3-3.29,2.3Z"/></g></g></g></g></svg>