<?xml version="1.0" encoding="UTF-8"?><svg xmlns="http://www.w3.org/2000/svg" viewBox="0 0 33.39 56.79"><defs><style>.d{fill:#1d1705;}</style></defs><g id="a"/><g id="b"><g id="c"><path class="d" d="M7.93,19.11c0,3.08-1.77,5.74-4.34,7.04C1.42,27.24,.06,29.48,.06,31.91c0,0-.14,1.86,0,2.46,.76,3.2,6.44,8.76,6.44,13.67v5.44c0,1.83,1.48,3.31,3.31,3.31h13.75c1.83,0,3.31-1.48,3.31-3.31v-5.44c0-4.92,5.68-10.48,6.44-13.67,.14-.6,0-2.46,0-2.46,0-2.43-1.35-4.67-3.52-5.76-2.58-1.29-4.34-3.96-4.34-7.04s1.77-5.74,4.34-7.04c2.21-1.11,3.53-3.45,3.53-5.93V1.69c0-.93-.76-1.69-1.69-1.69H1.76C.82,0,.06,.76,.06,1.69V6.15c0,2.47,1.32,4.82,3.53,5.93,2.58,1.29,4.34,3.96,4.34,7.04Z"/></g></g></svg>