<?xml version="1.0" encoding="UTF-8"?><svg xmlns="http://www.w3.org/2000/svg" viewBox="0 0 94.47 113.72"><defs><style>.d{fill:#1d1705;}</style></defs><g id="a"/><g id="b"><g id="c"><path class="d" d="M73.48,69.44c-3.09,3.4-12.08,1.21-15.39,4.44-3.34,3.27-1.33,12.3-4.75,15.3-3.59,3.14-12.27-.08-15.79,2.64-3.9,3-3.12,12.24-6.74,14.55-4.42,2.82-12.24-2-15.88-.48-6.04,2.51-11.9,9.65-14.37,7.4-2.47-2.25,4.08-8.76,5.99-15.02,1.16-3.77-4.39-11.09-2-15.76,1.95-3.82,11.23-3.93,13.84-8.1,2.36-3.77-1.68-12.09,1.11-15.97,2.65-3.7,11.84-2.56,14.77-6.2s-.14-12.34,2.95-15.75c2.38-2.62,10.59,.21,12.74-2.19,2.39-2.67-1.33-10.53,.8-12.91,2.44-2.72,10.62,.15,12.73-2.13,2.57-2.78-.77-10.83,1.39-12.88,2.99-2.84,10.28,1.46,12.64,.18,3.68-2,7.47-8.45,10.16-6.01,2.27,2.07-2.53,9.39-1.6,14.07,.67,3.36,8.79,6.86,8.4,11.19-.32,3.56-8.86,5.87-10.09,9.89-1.07,3.48,4.89,10.07,3.03,13.77-1.65,3.28-10.49,2.53-12.85,5.89-2.12,3.02,1.69,11.05-1.06,14.08Z"/></g></g></svg>