<?xml version="1.0" encoding="UTF-8"?><svg xmlns="http://www.w3.org/2000/svg" viewBox="0 0 281.84 173.47"><defs><style>.d{fill:#1d1705;}</style></defs><g id="a"/><g id="b"><g id="c"><g><path class="d" d="M281.78,80.09C279.53,32.33,214.63-3.41,136.84,.26c-29.62,1.4-56.83,8.31-79.06,18.97,2.77,4.07,5.75,8.42,7.85,10.88,4.71-1.47,10.06-2.25,15.95-2.25,22.44,0,34.12,10.12,38.41,23.05,2.03,5.06,3.17,21.11-15.33,21.11-10.76,0-25.14-5.22-40.49-19.74-.6,1.65-.92,3.48-.92,5.52,0,9.39,5.74,12.8,23.75,17.67,30.56,8.31,37.61,20.13,37.61,36.05,0,19.28-13.63,34.1-42.08,34.1-26.32,0-41.12-13.61-43.06-34.55h19.88c2.28,12.42,10.72,19.04,24.32,19.04s20.57-6.41,20.57-16.29c0-10.96-5.93-15.86-25.26-21.09-27.05-7.21-35.91-16.7-35.91-32.93,0-8.63,2.95-15.89,8.28-21.3-2.14-2.58-5.29-7.35-8.01-11.4C15.65,44.27-1.14,67.96,.06,93.38c2.25,47.76,67.14,83.5,144.94,79.83,77.79-3.67,139.03-45.36,136.78-93.12Zm-30.15,6.88l-18.58,8.96,11.61,17.05-2.94,5.09-20.57-1.53,1.53,20.57-5.09,2.94-17.05-11.61-8.96,18.58h-5.88l-8.96-18.58-17.05,11.61-5.09-2.94,1.53-20.57-20.57,1.53-2.94-5.09,11.61-17.05-18.58-8.96v-5.88l18.58-8.96-11.61-17.05,2.94-5.09,20.57,1.53-1.53-20.57,5.09-2.94,17.05,11.61,8.96-18.58h5.88l8.96,18.58,17.05-11.61,5.09,2.94-1.53,20.57,20.57-1.53,2.94,5.09-11.61,17.05,18.58,8.96v5.88Z"/><polygon class="d" points="197.93 49.39 179.36 49.39 163.29 58.68 154 74.75 154 93.32 163.29 109.4 179.36 118.68 197.93 118.68 214.01 109.4 223.29 93.32 223.29 74.75 214.01 58.68 197.93 49.39"/><path class="d" d="M81.17,43.22c-.9,0-1.75,.04-2.59,.11,9.77,8.55,21.33,13.73,26.31,14.9-.9-7.5-7.19-15.01-23.73-15.01Z"/></g></g></g></svg>