<?xml version="1.0" encoding="UTF-8"?><svg xmlns="http://www.w3.org/2000/svg" viewBox="0 0 132.32 66.16"><defs><style>.d{fill:#1d1705;}</style></defs><g id="a"/><g id="b"><g id="c"><g><path class="d" d="M66.16,34.27c-17.58,0-31.89,14.31-31.89,31.89h10c0-12.07,9.82-21.89,21.89-21.89,12.07,0,21.89,9.82,21.89,21.89h10c0-17.58-14.31-31.89-31.89-31.89Z"/><path class="d" d="M66.16,17.09c-27.06,0-49.07,22.01-49.07,49.07h10.36c0-21.35,17.37-38.72,38.72-38.72,21.35,0,38.72,17.37,38.72,38.72h10.36c0-27.06-22.01-49.07-49.07-49.07Z"/><path class="d" d="M66.16,0C29.68,0,0,29.68,0,66.16H10c0-30.97,25.19-56.16,56.16-56.16,30.97,0,56.16,25.19,56.16,56.16h10C132.32,29.68,102.64,0,66.16,0Z"/></g></g></g></svg>